<svg xmlns="http://www.w3.org/2000/svg" width="1920" height="1260" viewBox="0 0 1920 1260">
  <metadata><?xpacket begin="﻿" id="W5M0MpCehiHzreSzNTczkc9d"?>
<x:xmpmeta xmlns:x="adobe:ns:meta/" x:xmptk="Adobe XMP Core 5.6-c138 79.159824, 2016/09/14-01:09:01        ">
   <rdf:RDF xmlns:rdf="http://www.w3.org/1999/02/22-rdf-syntax-ns#">
      <rdf:Description rdf:about=""/>
   </rdf:RDF>
</x:xmpmeta>
                                                                                                    
                                                                                                    
                                                                                                    
                                                                                                    
                                                                                                    
                                                                                                    
                                                                                                    
                                                                                                    
                                                                                                    
                                                                                                    
                                                                                                    
                                                                                                    
                                                                                                    
                                                                                                    
                                                                                                    
                                                                                                    
                                                                                                    
                                                                                                    
                                                                                                    
                                                                                                    
                           
<?xpacket end="w"?></metadata>
<defs>
    <style>
      .cls-1 {
        fill-rule: evenodd;
      }
    </style>
  </defs>
  <path id="Color_Fill_1" data-name="Color Fill 1" class="cls-1" d="M0,0H1920V828l-230,18h2c31.52-35.7,61.56-26.755,71-91q1.005-19.5,2-39-20.505-25-41-50l-51-4c-14.38,3.366-40.81,22.453-53,16-6.26-15.472-1.22-37.506,0-57-115.98-29.369-276.71-16.99-415-17-56.61,0-137-7.008-171,18v92q10.005,46.5,20,93h-6l-41-3-64-12H759L431,803l-179-2c-51.7,0-110.487,3.212-156-4-32.287-5.116-67.042,4.612-96-3V0ZM1668,695l45,5q10.995,18,22,36c5.45,17.957-13.52,43.338-22,50-30.34,23.842-77,55.908-129,53v-1c8.55-22.981,16.99-49.768,24-70q10.005-9,20-18,4.995-16.5,10-33Z"/>
</svg>
